<svg width="20" height="20" viewBox="0 0 20 20" fill="none" xmlns="http://www.w3.org/2000/svg">
<g clip-path="url(#clip0_108_415)">
<path d="M4.1665 12.0812H3.33317C2.89114 12.0812 2.46722 11.9144 2.15466 11.6175C1.8421 11.3205 1.6665 10.9178 1.6665 10.4979V3.37288C1.6665 2.95296 1.8421 2.55023 2.15466 2.2533C2.46722 1.95637 2.89114 1.78955 3.33317 1.78955H10.8332C11.2752 1.78955 11.6991 1.95637 12.0117 2.2533C12.3242 2.55023 12.4998 2.95296 12.4998 3.37288V4.16455M9.1665 7.33122H16.6665C17.587 7.33122 18.3332 8.0401 18.3332 8.91455V16.0395C18.3332 16.914 17.587 17.6229 16.6665 17.6229H9.1665C8.24603 17.6229 7.49984 16.914 7.49984 16.0395V8.91455C7.49984 8.0401 8.24603 7.33122 9.1665 7.33122Z" stroke="#1E1E1E" stroke-width="2" stroke-linecap="round" stroke-linejoin="round"/>
</g>
<defs>
<clipPath id="clip0_108_415">
<rect width="20" height="19" fill="white" transform="translate(0 0.206055)"/>
</clipPath>
</defs>
</svg>
