<svg width="275" height="252" viewBox="0 0 275 252" fill="none" xmlns="http://www.w3.org/2000/svg">
<mask id="path-1-inside-1_200_1091" fill="white">
<path d="M90.6323 8C90.6323 3.58172 94.214 0 98.6323 0H156.537C160.955 0 164.537 3.58172 164.537 8V10.8741C164.537 15.2924 160.955 18.8741 156.537 18.8741H98.6323C94.214 18.8741 90.6323 15.2924 90.6323 10.8741V8Z"/>
</mask>
<path d="M90.6323 8C90.6323 3.58172 94.214 0 98.6323 0H156.537C160.955 0 164.537 3.58172 164.537 8V10.8741C164.537 15.2924 160.955 18.8741 156.537 18.8741H98.6323C94.214 18.8741 90.6323 15.2924 90.6323 10.8741V8Z" fill="#FF9168"/>
<path d="M98.6323 0V1H156.537V0V-1H98.6323V0ZM164.537 8H163.537V10.8741H164.537H165.537V8H164.537ZM156.537 18.8741V17.8741H98.6323V18.8741V19.8741H156.537V18.8741ZM90.6323 10.8741H91.6323V8H90.6323H89.6323V10.8741H90.6323ZM98.6323 18.8741V17.8741C94.7663 17.8741 91.6323 14.7401 91.6323 10.8741H90.6323H89.6323C89.6323 15.8447 93.6618 19.8741 98.6323 19.8741V18.8741ZM164.537 10.8741H163.537C163.537 14.7401 160.403 17.8741 156.537 17.8741V18.8741V19.8741C161.508 19.8741 165.537 15.8447 165.537 10.8741H164.537ZM156.537 0V1C160.403 1 163.537 4.13401 163.537 8H164.537H165.537C165.537 3.02944 161.508 -1 156.537 -1V0ZM98.6323 0V-1C93.6618 -1 89.6323 3.02943 89.6323 8H90.6323H91.6323C91.6323 4.134 94.7663 1 98.6323 1V0Z" fill="#FF9168" mask="url(#path-1-inside-1_200_1091)"/>
<mask id="path-3-inside-2_200_1091" fill="white">
<path d="M90.6323 49.8916C90.6323 45.4733 94.214 41.8916 98.6323 41.8916H156.537C160.955 41.8916 164.537 45.4733 164.537 49.8916V52.7657C164.537 57.184 160.955 60.7657 156.537 60.7657H98.6323C94.214 60.7657 90.6323 57.184 90.6323 52.7657V49.8916Z"/>
</mask>
<path d="M90.6323 49.8916C90.6323 45.4733 94.214 41.8916 98.6323 41.8916H156.537C160.955 41.8916 164.537 45.4733 164.537 49.8916V52.7657C164.537 57.184 160.955 60.7657 156.537 60.7657H98.6323C94.214 60.7657 90.6323 57.184 90.6323 52.7657V49.8916Z" fill="#FF9168"/>
<path d="M98.6323 41.8916V42.8916H156.537V41.8916V40.8916H98.6323V41.8916ZM164.537 49.8916H163.537V52.7657H164.537H165.537V49.8916H164.537ZM156.537 60.7657V59.7657H98.6323V60.7657V61.7657H156.537V60.7657ZM90.6323 52.7657H91.6323V49.8916H90.6323H89.6323V52.7657H90.6323ZM98.6323 60.7657V59.7657C94.7663 59.7657 91.6323 56.6317 91.6323 52.7657H90.6323H89.6323C89.6323 57.7363 93.6618 61.7657 98.6323 61.7657V60.7657ZM164.537 52.7657H163.537C163.537 56.6317 160.403 59.7657 156.537 59.7657V60.7657V61.7657C161.508 61.7657 165.537 57.7363 165.537 52.7657H164.537ZM156.537 41.8916V42.8916C160.403 42.8916 163.537 46.0256 163.537 49.8916H164.537H165.537C165.537 44.921 161.508 40.8916 156.537 40.8916V41.8916ZM98.6323 41.8916V40.8916C93.6618 40.8916 89.6323 44.921 89.6323 49.8916H90.6323H91.6323C91.6323 46.0256 94.7663 42.8916 98.6323 42.8916V41.8916Z" fill="#FF9168" mask="url(#path-3-inside-2_200_1091)"/>
<mask id="path-5-inside-3_200_1091" fill="white">
<path d="M0 91.7827C0 87.3644 3.58172 83.7827 8 83.7827H65.9048C70.3231 83.7827 73.9048 87.3644 73.9048 91.7827V94.6569C73.9048 99.0751 70.3231 102.657 65.9048 102.657H8C3.58172 102.657 0 99.0751 0 94.6568V91.7827Z"/>
</mask>
<path d="M0 91.7827C0 87.3644 3.58172 83.7827 8 83.7827H65.9048C70.3231 83.7827 73.9048 87.3644 73.9048 91.7827V94.6569C73.9048 99.0751 70.3231 102.657 65.9048 102.657H8C3.58172 102.657 0 99.0751 0 94.6568V91.7827Z" fill="#6CCF7C"/>
<path d="M8 83.7827V84.7827H65.9048V83.7827V82.7827H8V83.7827ZM73.9048 91.7827H72.9048V94.6569H73.9048H74.9048V91.7827H73.9048ZM65.9048 102.657V101.657H8V102.657V103.657H65.9048V102.657ZM0 94.6568H1V91.7827H0H-1V94.6568H0ZM8 102.657V101.657C4.13401 101.657 1 98.5228 1 94.6568H0H-1C-1 99.6274 3.02944 103.657 8 103.657V102.657ZM73.9048 94.6569H72.9048C72.9048 98.5228 69.7708 101.657 65.9048 101.657V102.657V103.657C70.8753 103.657 74.9048 99.6274 74.9048 94.6569H73.9048ZM65.9048 83.7827V84.7827C69.7708 84.7827 72.9048 87.9167 72.9048 91.7827H73.9048H74.9048C74.9048 86.8122 70.8753 82.7827 65.9048 82.7827V83.7827ZM8 83.7827V82.7827C3.02944 82.7827 -1 86.8121 -1 91.7827H0H1C1 87.9167 4.13401 84.7827 8 84.7827V83.7827Z" fill="#6CCF7C" mask="url(#path-5-inside-3_200_1091)"/>
<mask id="path-7-inside-4_200_1091" fill="white">
<path d="M83.9414 91.7827C83.9414 87.3644 87.5231 83.7827 91.9414 83.7827H163.836C168.255 83.7827 171.836 87.3644 171.836 91.7827V94.6569C171.836 99.0751 168.255 102.657 163.836 102.657H91.9414C87.5231 102.657 83.9414 99.0751 83.9414 94.6568V91.7827Z"/>
</mask>
<path d="M83.9414 91.7827C83.9414 87.3644 87.5231 83.7827 91.9414 83.7827H163.836C168.255 83.7827 171.836 87.3644 171.836 91.7827V94.6569C171.836 99.0751 168.255 102.657 163.836 102.657H91.9414C87.5231 102.657 83.9414 99.0751 83.9414 94.6568V91.7827Z" fill="#FF9168"/>
<path d="M91.9414 83.7827V84.7827H163.836V83.7827V82.7827H91.9414V83.7827ZM171.836 91.7827H170.836V94.6569H171.836H172.836V91.7827H171.836ZM163.836 102.657V101.657H91.9414V102.657V103.657H163.836V102.657ZM83.9414 94.6568H84.9414V91.7827H83.9414H82.9414V94.6568H83.9414ZM91.9414 102.657V101.657C88.0754 101.657 84.9414 98.5228 84.9414 94.6568H83.9414H82.9414C82.9414 99.6274 86.9708 103.657 91.9414 103.657V102.657ZM171.836 94.6569H170.836C170.836 98.5228 167.702 101.657 163.836 101.657V102.657V103.657C168.807 103.657 172.836 99.6274 172.836 94.6569H171.836ZM163.836 83.7827V84.7827C167.702 84.7827 170.836 87.9167 170.836 91.7827H171.836H172.836C172.836 86.8122 168.807 82.7827 163.836 82.7827V83.7827ZM91.9414 83.7827V82.7827C86.9708 82.7827 82.9414 86.8121 82.9414 91.7827H83.9414H84.9414C84.9414 87.9167 88.0754 84.7827 91.9414 84.7827V83.7827Z" fill="#FF9168" mask="url(#path-7-inside-4_200_1091)"/>
<mask id="path-9-inside-5_200_1091" fill="white">
<path d="M181.568 91.7827C181.568 87.3644 185.15 83.7827 189.568 83.7827H246.561C250.979 83.7827 254.561 87.3644 254.561 91.7827V94.6569C254.561 99.0751 250.979 102.657 246.561 102.657H189.568C185.15 102.657 181.568 99.0751 181.568 94.6568V91.7827Z"/>
</mask>
<path d="M181.568 91.7827C181.568 87.3644 185.15 83.7827 189.568 83.7827H246.561C250.979 83.7827 254.561 87.3644 254.561 91.7827V94.6569C254.561 99.0751 250.979 102.657 246.561 102.657H189.568C185.15 102.657 181.568 99.0751 181.568 94.6568V91.7827Z" fill="#FF9168"/>
<path d="M189.568 83.7827V84.7827H246.561V83.7827V82.7827H189.568V83.7827ZM254.561 91.7827H253.561V94.6569H254.561H255.561V91.7827H254.561ZM246.561 102.657V101.657H189.568V102.657V103.657H246.561V102.657ZM181.568 94.6568H182.568V91.7827H181.568H180.568V94.6568H181.568ZM189.568 102.657V101.657C185.702 101.657 182.568 98.5228 182.568 94.6568H181.568H180.568C180.568 99.6274 184.598 103.657 189.568 103.657V102.657ZM254.561 94.6569H253.561C253.561 98.5228 250.427 101.657 246.561 101.657V102.657V103.657C251.531 103.657 255.561 99.6274 255.561 94.6569H254.561ZM246.561 83.7827V84.7827C250.427 84.7827 253.561 87.9167 253.561 91.7827H254.561H255.561C255.561 86.8122 251.531 82.7827 246.561 82.7827V83.7827ZM189.568 83.7827V82.7827C184.598 82.7827 180.568 86.8121 180.568 91.7827H181.568H182.568C182.568 87.9167 185.702 84.7827 189.568 84.7827V83.7827Z" fill="#FF9168" mask="url(#path-9-inside-5_200_1091)"/>
<mask id="path-11-inside-6_200_1091" fill="white">
<path d="M0 133.674C0 129.256 3.58172 125.674 8 125.674H65.9048C70.3231 125.674 73.9048 129.256 73.9048 133.674V136.548C73.9048 140.967 70.3231 144.548 65.9048 144.548H8C3.58172 144.548 0 140.967 0 136.548V133.674Z"/>
</mask>
<path d="M0 133.674C0 129.256 3.58172 125.674 8 125.674H65.9048C70.3231 125.674 73.9048 129.256 73.9048 133.674V136.548C73.9048 140.967 70.3231 144.548 65.9048 144.548H8C3.58172 144.548 0 140.967 0 136.548V133.674Z" fill="#6CCF7C"/>
<path d="M8 125.674V126.674H65.9048V125.674V124.674H8V125.674ZM73.9048 133.674H72.9048V136.548H73.9048H74.9048V133.674H73.9048ZM65.9048 144.548V143.548H8V144.548V145.548H65.9048V144.548ZM0 136.548H1V133.674H0H-1V136.548H0ZM8 144.548V143.548C4.13401 143.548 1 140.414 1 136.548H0H-1C-1 141.519 3.02944 145.548 8 145.548V144.548ZM73.9048 136.548H72.9048C72.9048 140.414 69.7708 143.548 65.9048 143.548V144.548V145.548C70.8753 145.548 74.9048 141.519 74.9048 136.548H73.9048ZM65.9048 125.674V126.674C69.7708 126.674 72.9048 129.808 72.9048 133.674H73.9048H74.9048C74.9048 128.704 70.8753 124.674 65.9048 124.674V125.674ZM8 125.674V124.674C3.02944 124.674 -1 128.704 -1 133.674H0H1C1 129.808 4.13401 126.674 8 126.674V125.674Z" fill="#6CCF7C" mask="url(#path-11-inside-6_200_1091)"/>
<mask id="path-13-inside-7_200_1091" fill="white">
<path d="M0 175.566C0 171.148 3.58172 167.566 8 167.566H65.9048C70.3231 167.566 73.9048 171.148 73.9048 175.566V178.44C73.9048 182.858 70.3231 186.44 65.9048 186.44H8C3.58172 186.44 0 182.858 0 178.44V175.566Z"/>
</mask>
<path d="M0 175.566C0 171.148 3.58172 167.566 8 167.566H65.9048C70.3231 167.566 73.9048 171.148 73.9048 175.566V178.44C73.9048 182.858 70.3231 186.44 65.9048 186.44H8C3.58172 186.44 0 182.858 0 178.44V175.566Z" fill="#6CCF7C"/>
<path d="M8 167.566V168.566H65.9048V167.566V166.566H8V167.566ZM73.9048 175.566H72.9048V178.44H73.9048H74.9048V175.566H73.9048ZM65.9048 186.44V185.44H8V186.44V187.44H65.9048V186.44ZM0 178.44H1V175.566H0H-1V178.44H0ZM8 186.44V185.44C4.13401 185.44 1 182.306 1 178.44H0H-1C-1 183.411 3.02944 187.44 8 187.44V186.44ZM73.9048 178.44H72.9048C72.9048 182.306 69.7708 185.44 65.9048 185.44V186.44V187.44C70.8753 187.44 74.9048 183.411 74.9048 178.44H73.9048ZM65.9048 167.566V168.566C69.7708 168.566 72.9048 171.7 72.9048 175.566H73.9048H74.9048C74.9048 170.595 70.8753 166.566 65.9048 166.566V167.566ZM8 167.566V166.566C3.02944 166.566 -1 170.595 -1 175.566H0H1C1 171.7 4.13401 168.566 8 168.566V167.566Z" fill="#6CCF7C" mask="url(#path-13-inside-7_200_1091)"/>
<mask id="path-15-inside-8_200_1091" fill="white">
<path d="M0 217.457C0 213.039 3.58172 209.457 8 209.457H65.9048C70.3231 209.457 73.9048 213.039 73.9048 217.457V220.331C73.9048 224.749 70.3231 228.331 65.9048 228.331H8C3.58172 228.331 0 224.749 0 220.331V217.457Z"/>
</mask>
<path d="M0 217.457C0 213.039 3.58172 209.457 8 209.457H65.9048C70.3231 209.457 73.9048 213.039 73.9048 217.457V220.331C73.9048 224.749 70.3231 228.331 65.9048 228.331H8C3.58172 228.331 0 224.749 0 220.331V217.457Z" fill="#6CCF7C"/>
<path d="M8 209.457V210.457H65.9048V209.457V208.457H8V209.457ZM73.9048 217.457H72.9048V220.331H73.9048H74.9048V217.457H73.9048ZM65.9048 228.331V227.331H8V228.331V229.331H65.9048V228.331ZM0 220.331H1V217.457H0H-1V220.331H0ZM8 228.331V227.331C4.13401 227.331 1 224.197 1 220.331H0H-1C-1 225.302 3.02944 229.331 8 229.331V228.331ZM73.9048 220.331H72.9048C72.9048 224.197 69.7708 227.331 65.9048 227.331V228.331V229.331C70.8753 229.331 74.9048 225.302 74.9048 220.331H73.9048ZM65.9048 209.457V210.457C69.7708 210.457 72.9048 213.591 72.9048 217.457H73.9048H74.9048C74.9048 212.486 70.8753 208.457 65.9048 208.457V209.457ZM8 209.457V208.457C3.02944 208.457 -1 212.486 -1 217.457H0H1C1 213.591 4.13401 210.457 8 210.457V209.457Z" fill="#6CCF7C" mask="url(#path-15-inside-8_200_1091)"/>
<mask id="path-17-inside-9_200_1091" fill="white">
<path d="M90.6323 175.566C90.6323 171.148 94.214 167.566 98.6323 167.566H156.537C160.955 167.566 164.537 171.148 164.537 175.566V178.44C164.537 182.858 160.955 186.44 156.537 186.44H98.6323C94.214 186.44 90.6323 182.858 90.6323 178.44V175.566Z"/>
</mask>
<path d="M90.6323 175.566C90.6323 171.148 94.214 167.566 98.6323 167.566H156.537C160.955 167.566 164.537 171.148 164.537 175.566V178.44C164.537 182.858 160.955 186.44 156.537 186.44H98.6323C94.214 186.44 90.6323 182.858 90.6323 178.44V175.566Z" fill="#EFC65E"/>
<path d="M98.6323 167.566V168.566H156.537V167.566V166.566H98.6323V167.566ZM164.537 175.566H163.537V178.44H164.537H165.537V175.566H164.537ZM156.537 186.44V185.44H98.6323V186.44V187.44H156.537V186.44ZM90.6323 178.44H91.6323V175.566H90.6323H89.6323V178.44H90.6323ZM98.6323 186.44V185.44C94.7663 185.44 91.6323 182.306 91.6323 178.44H90.6323H89.6323C89.6323 183.411 93.6618 187.44 98.6323 187.44V186.44ZM164.537 178.44H163.537C163.537 182.306 160.403 185.44 156.537 185.44V186.44V187.44C161.508 187.44 165.537 183.411 165.537 178.44H164.537ZM156.537 167.566V168.566C160.403 168.566 163.537 171.7 163.537 175.566H164.537H165.537C165.537 170.595 161.508 166.566 156.537 166.566V167.566ZM98.6323 167.566V166.566C93.6618 166.566 89.6323 170.595 89.6323 175.566H90.6323H91.6323C91.6323 171.7 94.7663 168.566 98.6323 168.566V167.566Z" fill="#EFC65E" mask="url(#path-17-inside-9_200_1091)"/>
<mask id="path-19-inside-10_200_1091" fill="white">
<path d="M180.96 156.231C180.96 151.813 184.542 148.231 188.96 148.231H246.865C251.284 148.231 254.865 151.813 254.865 156.231V159.105C254.865 163.523 251.284 167.105 246.865 167.105H188.96C184.542 167.105 180.96 163.523 180.96 159.105V156.231Z"/>
</mask>
<path d="M180.96 156.231C180.96 151.813 184.542 148.231 188.96 148.231H246.865C251.284 148.231 254.865 151.813 254.865 156.231V159.105C254.865 163.523 251.284 167.105 246.865 167.105H188.96C184.542 167.105 180.96 163.523 180.96 159.105V156.231Z" fill="#EFC65E"/>
<path d="M188.96 148.231V149.231H246.865V148.231V147.231H188.96V148.231ZM254.865 156.231H253.865V159.105H254.865H255.865V156.231H254.865ZM246.865 167.105V166.105H188.96V167.105V168.105H246.865V167.105ZM180.96 159.105H181.96V156.231H180.96H179.96V159.105H180.96ZM188.96 167.105V166.105C185.094 166.105 181.96 162.971 181.96 159.105H180.96H179.96C179.96 164.076 183.99 168.105 188.96 168.105V167.105ZM254.865 159.105H253.865C253.865 162.971 250.731 166.105 246.865 166.105V167.105V168.105C251.836 168.105 255.865 164.076 255.865 159.105H254.865ZM246.865 148.231V149.231C250.731 149.231 253.865 152.365 253.865 156.231H254.865H255.865C255.865 151.26 251.836 147.231 246.865 147.231V148.231ZM188.96 148.231V147.231C183.99 147.231 179.96 151.26 179.96 156.231H180.96H181.96C181.96 152.365 185.094 149.231 188.96 149.231V148.231Z" fill="#EFC65E" mask="url(#path-19-inside-10_200_1091)"/>
<mask id="path-21-inside-11_200_1091" fill="white">
<path d="M180.656 198.583C180.656 194.165 184.238 190.583 188.656 190.583H246.561C250.979 190.583 254.561 194.165 254.561 198.583V201.457C254.561 205.875 250.979 209.457 246.561 209.457H188.656C184.238 209.457 180.656 205.875 180.656 201.457V198.583Z"/>
</mask>
<path d="M180.656 198.583C180.656 194.165 184.238 190.583 188.656 190.583H246.561C250.979 190.583 254.561 194.165 254.561 198.583V201.457C254.561 205.875 250.979 209.457 246.561 209.457H188.656C184.238 209.457 180.656 205.875 180.656 201.457V198.583Z" fill="#EFC65E"/>
<path d="M188.656 190.583V191.583H246.561V190.583V189.583H188.656V190.583ZM254.561 198.583H253.561V201.457H254.561H255.561V198.583H254.561ZM246.561 209.457V208.457H188.656V209.457V210.457H246.561V209.457ZM180.656 201.457H181.656V198.583H180.656H179.656V201.457H180.656ZM188.656 209.457V208.457C184.79 208.457 181.656 205.323 181.656 201.457H180.656H179.656C179.656 206.428 183.686 210.457 188.656 210.457V209.457ZM254.561 201.457H253.561C253.561 205.323 250.427 208.457 246.561 208.457V209.457V210.457C251.532 210.457 255.561 206.428 255.561 201.457H254.561ZM246.561 190.583V191.583C250.427 191.583 253.561 194.717 253.561 198.583H254.561H255.561C255.561 193.612 251.532 189.583 246.561 189.583V190.583ZM188.656 190.583V189.583C183.686 189.583 179.656 193.612 179.656 198.583H180.656H181.656C181.656 194.717 184.79 191.583 188.656 191.583V190.583Z" fill="#EFC65E" mask="url(#path-21-inside-11_200_1091)"/>
<mask id="path-23-inside-12_200_1091" fill="white">
<path d="M161.8 240.935C161.8 236.516 165.382 232.935 169.8 232.935H266.33C270.748 232.935 274.33 236.516 274.33 240.935V243.809C274.33 248.227 270.748 251.809 266.33 251.809H169.8C165.382 251.809 161.8 248.227 161.8 243.809V240.935Z"/>
</mask>
<path d="M161.8 240.935C161.8 236.516 165.382 232.935 169.8 232.935H266.33C270.748 232.935 274.33 236.516 274.33 240.935V243.809C274.33 248.227 270.748 251.809 266.33 251.809H169.8C165.382 251.809 161.8 248.227 161.8 243.809V240.935Z" fill="#F681AC"/>
<path d="M169.8 232.935V233.935H266.33V232.935V231.935H169.8V232.935ZM274.33 240.935H273.33V243.809H274.33H275.33V240.935H274.33ZM266.33 251.809V250.809H169.8V251.809V252.809H266.33V251.809ZM161.8 243.809H162.8V240.935H161.8H160.8V243.809H161.8ZM169.8 251.809V250.809C165.934 250.809 162.8 247.675 162.8 243.809H161.8H160.8C160.8 248.779 164.829 252.809 169.8 252.809V251.809ZM274.33 243.809H273.33C273.33 247.675 270.196 250.809 266.33 250.809V251.809V252.809C271.3 252.809 275.33 248.779 275.33 243.809H274.33ZM266.33 232.935V233.935C270.196 233.935 273.33 237.069 273.33 240.935H274.33H275.33C275.33 235.964 271.3 231.935 266.33 231.935V232.935ZM169.8 232.935V231.935C164.829 231.935 160.8 235.964 160.8 240.935H161.8H162.8C162.8 237.069 165.934 233.935 169.8 233.935V232.935Z" fill="#F681AC" mask="url(#path-23-inside-12_200_1091)"/>
<path d="M124.901 42.5986C125.291 42.9891 125.924 42.9891 126.315 42.5986L132.679 36.2347C133.07 35.8441 133.07 35.211 132.679 34.8204C132.288 34.4299 131.655 34.4299 131.265 34.8204L125.608 40.4773L119.951 34.8204C119.561 34.4299 118.927 34.4299 118.537 34.8204C118.146 35.211 118.146 35.8441 118.537 36.2347L124.901 42.5986ZM125.608 18.8743H124.608V41.8915H125.608H126.608V18.8743H125.608Z" fill="black"/>
<path d="M124.901 84.49C125.291 84.8805 125.924 84.8805 126.315 84.49L132.679 78.126C133.07 77.7355 133.07 77.1023 132.679 76.7118C132.288 76.3213 131.655 76.3213 131.265 76.7118L125.608 82.3687L119.951 76.7118C119.561 76.3213 118.927 76.3213 118.537 76.7118C118.146 77.1023 118.146 77.7355 118.537 78.126L124.901 84.49ZM125.608 60.7656H124.608V83.7829H125.608H126.608V60.7656H125.608Z" fill="black"/>
<path d="M33.9643 126.382C34.3548 126.772 34.988 126.772 35.3785 126.382L41.7425 120.018C42.133 119.627 42.133 118.994 41.7425 118.603C41.3519 118.213 40.7188 118.213 40.3282 118.603L34.6714 124.26L29.0145 118.603C28.624 118.213 27.9908 118.213 27.6003 118.603C27.2098 118.994 27.2098 119.627 27.6003 120.018L33.9643 126.382ZM34.6714 102.657H33.6714V125.674H34.6714H35.6714V102.657H34.6714Z" fill="black"/>
<path d="M33.9643 168.273C34.3548 168.663 34.988 168.663 35.3785 168.273L41.7425 161.909C42.133 161.518 42.133 160.885 41.7425 160.495C41.3519 160.104 40.7188 160.104 40.3282 160.495L34.6714 166.151L29.0145 160.495C28.624 160.104 27.9908 160.104 27.6003 160.495C27.2098 160.885 27.2098 161.518 27.6003 161.909L33.9643 168.273ZM34.6714 144.548H33.6714V167.566H34.6714H35.6714V144.548H34.6714Z" fill="black"/>
<path d="M217.357 190.83C217.748 191.22 218.381 191.22 218.772 190.83L225.136 184.466C225.526 184.075 225.526 183.442 225.136 183.052C224.745 182.661 224.112 182.661 223.721 183.052L218.064 188.708L212.408 183.052C212.017 182.661 211.384 182.661 210.993 183.052C210.603 183.442 210.603 184.075 210.993 184.466L217.357 190.83ZM218.064 167.105H217.064V190.123H218.064H219.064V167.105H218.064Z" fill="black"/>
<path d="M217.357 233.181C217.748 233.572 218.381 233.572 218.772 233.181L225.136 226.817C225.526 226.427 225.526 225.794 225.136 225.403C224.745 225.013 224.112 225.013 223.721 225.403L218.064 231.06L212.408 225.403C212.017 225.013 211.384 225.013 210.993 225.403C210.603 225.794 210.603 226.427 210.993 226.817L217.357 233.181ZM218.064 209.457H217.064V232.474H218.064H219.064V209.457H218.064Z" fill="black"/>
<path d="M90.9233 178.354C91.3567 178.242 91.5776 177.648 91.4167 177.029L88.7951 166.935C88.6342 166.316 88.1524 165.905 87.7191 166.017C87.2857 166.13 87.0648 166.723 87.2257 167.343L89.556 176.315L83.2784 177.946C82.8451 178.058 82.6242 178.652 82.785 179.271C82.9459 179.89 83.4277 180.301 83.861 180.189L90.9233 178.354ZM52.311 144.548L51.9621 145.486L90.2831 178.17L90.632 177.233L90.9809 176.296L52.6599 143.611L52.311 144.548Z" fill="black"/>
<path d="M181.641 155.438C182.043 155.079 182.065 154.446 181.689 154.025L175.564 147.164C175.188 146.743 174.557 146.693 174.154 147.053C173.752 147.412 173.73 148.045 174.106 148.466L179.55 154.565L173.716 159.773C173.314 160.133 173.292 160.766 173.668 161.187C174.043 161.608 174.675 161.657 175.077 161.298L181.641 155.438ZM52.6152 144.548L52.5808 145.548L180.926 155.675L180.96 154.676L180.995 153.677L52.6497 143.549L52.6152 144.548Z" fill="black"/>
<path d="M33.9643 210.164C34.3548 210.554 34.988 210.554 35.3785 210.164L41.7425 203.8C42.133 203.409 42.133 202.776 41.7425 202.386C41.3519 201.995 40.7188 201.995 40.3282 202.386L34.6714 208.042L29.0145 202.386C28.624 201.995 27.9908 201.995 27.6003 202.386C27.2098 202.776 27.2098 203.409 27.6003 203.8L33.9643 210.164ZM34.6714 186.439H33.6714V209.457H34.6714H35.6714V186.439H34.6714Z" fill="black"/>
<path d="M218.623 84.7184C219.051 84.4632 219.148 83.8375 218.84 83.3209L213.818 74.9014C213.51 74.3847 212.913 74.1727 212.486 74.4279C212.058 74.6831 211.961 75.3088 212.269 75.8254L216.732 83.3094L210.535 87.0055C210.107 87.2606 210.01 87.8863 210.318 88.403C210.626 88.9196 211.223 89.1316 211.651 88.8765L218.623 84.7184ZM153.284 60.7656L153.131 61.7538L217.912 84.771L218.065 83.7829L218.218 82.7947L153.437 59.7774L153.284 60.7656Z" fill="black"/>
<path d="M31.467 83.2985C31.1492 83.8045 31.237 84.4316 31.663 84.6991L38.6052 89.0583C39.0312 89.3258 39.6341 89.1324 39.9518 88.6264C40.2696 88.1204 40.1818 87.4933 39.7558 87.2258L33.585 83.351L38.1875 76.0214C38.5052 75.5154 38.4174 74.8883 37.9914 74.6208C37.5654 74.3533 36.9625 74.5467 36.6448 75.0527L31.467 83.2985ZM104.014 60.7656L103.876 59.7753L32.0997 82.7925L32.2383 83.7829L32.3769 84.7732L104.153 61.756L104.014 60.7656Z" fill="black"/>
</svg>
